<svg width="39" height="40" viewBox="0 0 39 40" fill="none" xmlns="http://www.w3.org/2000/svg">
<g clip-path="url(#clip0_2096_227)">
<path d="M13.4907 7.70605H6.4967C5.84943 7.70605 5.32483 8.23065 5.32483 8.87793C5.32483 9.52521 5.84943 10.0498 6.4967 10.0498H13.4907C14.1377 10.0498 14.6626 9.52521 14.6626 8.87793C14.6626 8.23065 14.1377 7.70605 13.4907 7.70605Z" fill="#23A6F0"/>
<path d="M13.4907 12.3938H6.4967C5.84943 12.3938 5.32483 12.9184 5.32483 13.5657C5.32483 14.213 5.84943 14.7376 6.4967 14.7376H13.4907C14.1377 14.7376 14.6626 14.213 14.6626 13.5657C14.6626 12.9184 14.1377 12.3938 13.4907 12.3938Z" fill="#23A6F0"/>
<path d="M13.4907 17.0815H6.4967C5.84943 17.0815 5.32483 17.6061 5.32483 18.2534C5.32483 18.9007 5.84943 19.4253 6.4967 19.4253H13.4907C14.1377 19.4253 14.6626 18.9007 14.6626 18.2534C14.6626 17.6061 14.1377 17.0815 13.4907 17.0815Z" fill="#23A6F0"/>
<path d="M13.4907 21.7694H6.4967C5.84943 21.7694 5.32483 22.294 5.32483 22.9413C5.32483 23.5886 5.84943 24.1132 6.4967 24.1132H13.4907C14.1377 24.1132 14.6626 23.5886 14.6626 22.9413C14.6626 22.294 14.1377 21.7694 13.4907 21.7694Z" fill="#23A6F0"/>
<path d="M13.4907 26.5356H6.4967C5.84943 26.5356 5.32483 27.0605 5.32483 27.7075C5.32483 28.3548 5.84943 28.8794 6.4967 28.8794H13.4907C14.1377 28.8794 14.6626 28.3548 14.6626 27.7075C14.6626 27.0605 14.1377 26.5356 13.4907 26.5356Z" fill="#23A6F0"/>
<path d="M17.4263 10.0498H24.4203C25.0676 10.0498 25.5922 9.52521 25.5922 8.87793C25.5922 8.23065 25.0676 7.70605 24.4203 7.70605H17.4263C16.7793 7.70605 16.2544 8.23065 16.2544 8.87793C16.2544 9.52521 16.7793 10.0498 17.4263 10.0498Z" fill="#23A6F0"/>
<path d="M17.4263 14.7376H24.4203C25.0676 14.7376 25.5922 14.213 25.5922 13.5657C25.5922 12.9184 25.0676 12.3938 24.4203 12.3938H17.4263C16.7793 12.3938 16.2544 12.9184 16.2544 13.5657C16.2544 14.213 16.7793 14.7376 17.4263 14.7376Z" fill="#23A6F0"/>
<path d="M21.9667 18.2534C21.9667 17.6061 21.4421 17.0815 20.7948 17.0815H17.4263C16.7793 17.0815 16.2544 17.6061 16.2544 18.2534C16.2544 18.9007 16.7793 19.4253 17.4263 19.4253H20.7948C21.4421 19.4253 21.9667 18.9007 21.9667 18.2534Z" fill="#23A6F0"/>
<path d="M33.0681 27.0303C32.5633 26.6253 31.826 26.7062 31.4208 27.211L28.4026 30.9738L26.534 29.62C26.01 29.2401 25.2769 29.3573 24.8973 29.8813C24.5177 30.4055 24.6349 31.1383 25.1588 31.5179L27.9308 33.5263C28.1383 33.6764 28.3788 33.7494 28.6177 33.7494C28.9616 33.7494 29.3016 33.5983 29.5323 33.3105L33.2491 28.6776C33.654 28.1729 33.5732 27.4353 33.0681 27.0303Z" fill="#23A6F0"/>
<path d="M36.0301 23.4329C34.5036 21.8796 32.5422 20.9006 30.417 20.6122V4.71954C30.417 2.11731 28.2997 0 25.6974 0H5.21985C2.61731 0 0.5 2.11731 0.5 4.71954V31.8658C0.5 34.4684 2.61731 36.5857 5.21954 36.5857H21.6896C23.5429 38.7628 26.2077 40 29.0907 40C34.4572 40 38.8231 35.6311 38.8231 30.2609C38.8231 27.6901 37.8312 25.2652 36.0301 23.4329ZM2.84375 31.8658V4.71954C2.84375 3.40973 3.90973 2.34375 5.21985 2.34375H25.6974C27.0076 2.34375 28.0732 3.40973 28.0732 4.71954V20.575C23.1831 21.0855 19.3583 25.2344 19.3583 30.2609C19.3583 31.6541 19.6489 33.0011 20.2061 34.2416H5.21985C3.90973 34.2416 2.84375 33.176 2.84375 31.8658ZM29.0907 37.6562C26.7503 37.6562 24.5988 36.5817 23.1874 34.7086C22.2157 33.4186 21.7018 31.8808 21.7018 30.2609C21.7018 26.1832 25.0166 22.8656 29.0907 22.8656C29.1292 22.8656 29.1679 22.8662 29.2064 22.8668L29.2244 22.8671C31.1693 22.9016 32.9927 23.6859 34.3586 25.0757C35.7261 26.467 36.4793 28.3087 36.4793 30.2609C36.4793 34.3387 33.1648 37.6562 29.0907 37.6562Z" fill="#23A6F0"/>
</g>
<defs>
<clipPath id="clip0_2096_227">
<rect width="38.3594" height="40" fill="white" transform="translate(0.5)"/>
</clipPath>
</defs>
</svg>
