<svg width="42" height="38" viewBox="0 0 42 38" fill="none" xmlns="http://www.w3.org/2000/svg">
<g clip-path="url(#clip0_2096_249)">
<path d="M20.8634 18.05C24.5534 18.05 27.4234 15.0643 27.4234 11.4C27.4234 7.73574 24.4167 4.88574 20.7267 4.88574C17.0367 4.88574 14.1667 7.87146 14.1667 11.4C14.1667 15.0643 17.1734 18.05 20.8634 18.05ZM20.7267 7.60003C20.8634 7.60003 20.8634 7.60003 20.7267 7.60003C22.9134 7.60003 24.69 9.36431 24.69 11.5357C24.69 13.7072 22.9134 15.3357 20.7267 15.3357C18.54 15.3357 16.9 13.5715 16.9 11.5357C16.9 9.36431 18.6767 7.60003 20.7267 7.60003Z" fill="#23A6F0"/>
<path d="M41.09 17.2357C38.4933 14.9286 35.0767 13.7071 31.5233 13.8429H30.43C30.1567 14.9286 29.7467 15.8786 29.2 16.6929C30.02 16.5571 30.7033 16.5571 31.5233 16.5571C34.12 16.4214 36.7167 17.2357 38.7667 18.7286V28.5H41.5V17.6429L41.09 17.2357Z" fill="#23A6F0"/>
<path d="M28.38 5.15723C29.0633 3.52866 30.9767 2.71437 32.7533 3.39294C34.3933 4.07151 35.2133 5.97151 34.53 7.7358C33.9833 8.95723 32.7533 9.77151 31.5233 9.77151C31.25 9.77151 30.84 9.77151 30.5667 9.6358C30.7033 10.3144 30.7033 10.9929 30.7033 11.5358V12.3501C30.9767 12.3501 31.25 12.4858 31.5233 12.4858C34.94 12.4858 37.6733 9.77151 37.6733 6.51437C37.6733 3.12151 34.94 0.407227 31.66 0.407227C29.4733 0.407227 27.56 1.49294 26.4667 3.39294C27.15 3.80008 27.8333 4.34294 28.38 5.15723Z" fill="#23A6F0"/>
<path d="M12.8 16.8286C12.2533 16.0143 11.8433 15.0643 11.57 13.9786H10.4767C6.92333 13.8429 3.50667 15.0643 0.91 17.2358L0.5 17.6429V28.5H3.23333V18.7286C5.42 17.2358 7.88 16.4215 10.4767 16.5572C11.2967 16.5572 12.1167 16.6929 12.8 16.8286Z" fill="#23A6F0"/>
<path d="M10.4767 12.3499C10.75 12.3499 11.0233 12.3499 11.2967 12.2142V11.3999C11.2967 10.7214 11.2967 10.0428 11.4333 9.49994C11.16 9.63565 10.75 9.63565 10.4767 9.63565C8.70001 9.63565 7.19667 8.14279 7.19667 6.37851C7.19667 4.61422 8.70001 3.12137 10.4767 3.12137C11.8433 3.12137 13.0733 3.93565 13.62 5.15708C14.1667 4.47851 14.9867 3.79994 15.67 3.25708C13.8933 0.407081 10.2033 -0.542919 7.33334 1.22137C4.46334 2.98565 3.50667 6.64994 5.28334 9.49994C6.37667 11.2642 8.29001 12.3499 10.4767 12.3499Z" fill="#23A6F0"/>
<path d="M32.07 25.3786L31.7967 24.9714C29.0633 21.9857 25.2367 20.2214 21.1367 20.3572C17.0367 20.2214 13.0733 21.9857 10.34 24.9714L10.0667 25.3786V35.6929C10.0667 36.9143 11.0233 38 12.39 38H29.8833C31.1133 38 32.2067 36.9143 32.2067 35.6929V25.3786H32.07ZM29.3367 35.2857H12.8V26.3286C14.9867 24.1572 17.9933 23.0714 21.1367 23.0714C24.1433 22.9357 27.15 24.1572 29.3367 26.3286V35.2857Z" fill="#23A6F0"/>
</g>
<defs>
<clipPath id="clip0_2096_249">
<rect width="41" height="38" fill="white" transform="translate(0.5)"/>
</clipPath>
</defs>
</svg>
