<svg width="37" height="32" viewBox="0 0 37 32" fill="none" xmlns="http://www.w3.org/2000/svg">
<path d="M35.375 29.2501H33.125V1.12509C33.125 0.93984 33.0793 0.757449 32.9919 0.594118C32.9044 0.430788 32.778 0.291574 32.6239 0.188839C32.4697 0.0861045 32.2926 0.0230292 32.1082 0.00521424C31.9238 -0.0126008 31.7378 0.0153962 31.5669 0.0867191L19.625 5.06259V1.12509C19.625 0.93984 19.5793 0.757449 19.4919 0.594118C19.4044 0.430788 19.278 0.291574 19.1239 0.188839C18.9697 0.0861045 18.7926 0.0230292 18.6082 0.00521424C18.4238 -0.0126008 18.2378 0.0153962 18.0669 0.0867191L4.56687 5.71172C4.36195 5.7972 4.18691 5.94142 4.06379 6.1262C3.94067 6.31097 3.87498 6.52805 3.875 6.75009V29.2501H1.625C1.32663 29.2501 1.04048 29.3686 0.829505 29.5796C0.618526 29.7906 0.5 30.0767 0.5 30.3751C0.5 30.6735 0.618526 30.9596 0.829505 31.1706C1.04048 31.3816 1.32663 31.5001 1.625 31.5001H35.375C35.6734 31.5001 35.9595 31.3816 36.1705 31.1706C36.3815 30.9596 36.5 30.6735 36.5 30.3751C36.5 30.0767 36.3815 29.7906 36.1705 29.5796C35.9595 29.3686 35.6734 29.2501 35.375 29.2501ZM30.875 2.81259V29.2501H28.625V22.5001C28.625 22.2017 28.5065 21.9156 28.2955 21.7046C28.0845 21.4936 27.7984 21.3751 27.5 21.3751H23C22.7016 21.3751 22.4155 21.4936 22.2045 21.7046C21.9935 21.9156 21.875 22.2017 21.875 22.5001V29.2501H19.625V7.50047L30.875 2.81259ZM6.125 7.50047L17.375 2.81259V29.2501H15.125V22.5001C15.125 22.2017 15.0065 21.9156 14.7955 21.7046C14.5845 21.4936 14.2984 21.3751 14 21.3751H9.5C9.20163 21.3751 8.91548 21.4936 8.7045 21.7046C8.49353 21.9156 8.375 22.2017 8.375 22.5001V29.2501H6.125V7.50047ZM10.625 29.2501V23.6251H12.875V29.2501H10.625ZM24.125 29.2501V23.6251H26.375V29.2501H24.125Z" fill="#23A6F0"/>
<path d="M9.5 18H14C14.2984 18 14.5845 17.8815 14.7955 17.6705C15.0065 17.4595 15.125 17.1734 15.125 16.875V11.25C15.125 10.9516 15.0065 10.6655 14.7955 10.4545C14.5845 10.2435 14.2984 10.125 14 10.125H9.5C9.20163 10.125 8.91548 10.2435 8.70451 10.4545C8.49353 10.6655 8.375 10.9516 8.375 11.25V16.875C8.375 17.1734 8.49353 17.4595 8.70451 17.6705C8.91548 17.8815 9.20163 18 9.5 18ZM10.625 12.375H12.875V15.75H10.625V12.375Z" fill="#23A6F0"/>
<path d="M23 18H27.5C27.7984 18 28.0845 17.8815 28.2955 17.6705C28.5065 17.4595 28.625 17.1734 28.625 16.875V11.25C28.625 10.9516 28.5065 10.6655 28.2955 10.4545C28.0845 10.2435 27.7984 10.125 27.5 10.125H23C22.7016 10.125 22.4155 10.2435 22.2045 10.4545C21.9935 10.6655 21.875 10.9516 21.875 11.25V16.875C21.875 17.1734 21.9935 17.4595 22.2045 17.6705C22.4155 17.8815 22.7016 18 23 18ZM24.125 12.375H26.375V15.75H24.125V12.375Z" fill="#23A6F0"/>
</svg>
