<svg width="37" height="36" viewBox="0 0 37 36" fill="none" xmlns="http://www.w3.org/2000/svg">
<path d="M35.375 15.75H27.5V11.8125L27.95 12.15C28.0682 12.2386 28.2027 12.3031 28.3458 12.3398C28.4889 12.3765 28.6379 12.3846 28.7841 12.3637C28.9304 12.3428 29.0711 12.2933 29.1982 12.218C29.3253 12.1428 29.4364 12.0432 29.525 11.925C29.6136 11.8068 29.6781 11.6723 29.7148 11.5292C29.7515 11.3861 29.7596 11.2372 29.7387 11.0909C29.7178 10.9446 29.6683 10.8039 29.593 10.6768C29.5178 10.5497 29.4182 10.4386 29.3 10.35L25.25 7.3125V2.25C25.25 1.95163 25.1315 1.66548 24.9205 1.4545C24.7095 1.24353 24.4234 1.125 24.125 1.125H19.625C19.3266 1.125 19.0405 1.24353 18.8295 1.4545C18.6185 1.66548 18.5 1.95163 18.5 2.25L15.8 0.225C15.6053 0.0789501 15.3684 0 15.125 0C14.8816 0 14.6447 0.0789501 14.45 0.225L0.950005 10.35C0.71131 10.529 0.553507 10.7955 0.511311 11.0909C0.469116 11.3863 0.545983 11.6863 0.725005 11.925C0.904026 12.1637 1.17054 12.3215 1.46591 12.3637C1.76128 12.4059 2.06131 12.329 2.3 12.15L2.75 11.8125V27H1.625C1.32664 27 1.04049 27.1185 0.829509 27.3295C0.618531 27.5405 0.500005 27.8266 0.500005 28.125C0.500005 28.4234 0.618531 28.7095 0.829509 28.9205C1.04049 29.1315 1.32664 29.25 1.625 29.25H18.5C18.7984 29.25 19.0845 29.1315 19.2955 28.9205C19.5065 28.7095 19.625 28.4234 19.625 28.125C19.625 27.8266 19.5065 27.5405 19.2955 27.3295C19.0845 27.1185 18.7984 27 18.5 27H17.375V15.75C17.375 15.4516 17.2565 15.1655 17.0455 14.9545C16.8345 14.7435 16.5484 14.625 16.25 14.625H9.5C9.20164 14.625 8.91549 14.7435 8.70451 14.9545C8.49353 15.1655 8.375 15.4516 8.375 15.75V27H5V10.125L15.125 2.53125L18.95 5.4C19.1171 5.52536 19.3159 5.60169 19.524 5.62045C19.7321 5.63922 19.9413 5.59967 20.1281 5.50623C20.315 5.4128 20.4721 5.26917 20.582 5.09145C20.6918 4.91372 20.75 4.70893 20.75 4.5V3.375H23V7.875C23 8.04965 23.0407 8.2219 23.1188 8.37812C23.1969 8.53433 23.3103 8.67021 23.45 8.775L25.25 10.125V15.75H23C22.7016 15.75 22.4155 15.8685 22.2045 16.0795C21.9935 16.2905 21.875 16.5766 21.875 16.875V34.875C21.875 35.1734 21.9935 35.4595 22.2045 35.6705C22.4155 35.8815 22.7016 36 23 36H35.375C35.6734 36 35.9595 35.8815 36.1705 35.6705C36.3815 35.4595 36.5 35.1734 36.5 34.875V16.875C36.5 16.5766 36.3815 16.2905 36.1705 16.0795C35.9595 15.8685 35.6734 15.75 35.375 15.75ZM10.625 16.875H15.125V27H10.625V16.875ZM34.25 31.707C33.779 31.8742 33.3512 32.1443 32.9977 32.4977C32.6443 32.8511 32.3742 33.279 32.207 33.75H26.168C26.0008 33.279 25.7307 32.8511 25.3773 32.4977C25.0239 32.1443 24.596 31.8742 24.125 31.707V20.043C24.596 19.8758 25.0239 19.6057 25.3773 19.2523C25.7307 18.8989 26.0008 18.471 26.168 18H32.207C32.3742 18.471 32.6443 18.8989 32.9977 19.2523C33.3512 19.6057 33.779 19.8758 34.25 20.043V31.707ZM29.1875 29.8125C28.4087 29.8125 27.6475 29.5816 26.9999 29.1489C26.3524 28.7163 25.8478 28.1013 25.5497 27.3818C25.2517 26.6623 25.1737 25.8706 25.3257 25.1068C25.4776 24.343 25.8526 23.6414 26.4033 23.0908C26.9539 22.5401 27.6555 22.1651 28.4193 22.0132C29.1831 21.8612 29.9748 21.9392 30.6943 22.2372C31.4138 22.5352 32.0288 23.0399 32.4614 23.6874C32.8941 24.335 33.125 25.0962 33.125 25.875C33.125 26.9193 32.7102 27.9208 31.9717 28.6592C31.2333 29.3977 30.2318 29.8125 29.1875 29.8125ZM29.1875 24.1875C28.8537 24.1875 28.5275 24.2865 28.25 24.4719C27.9725 24.6573 27.7562 24.9209 27.6285 25.2292C27.5007 25.5376 27.4673 25.8769 27.5324 26.2042C27.5975 26.5316 27.7583 26.8322 27.9943 27.0682C28.2303 27.3042 28.5309 27.465 28.8583 27.5301C29.1856 27.5952 29.5249 27.5618 29.8333 27.434C30.1416 27.3063 30.4052 27.09 30.5906 26.8125C30.776 26.535 30.875 26.2088 30.875 25.875C30.875 25.4274 30.6972 24.9982 30.3807 24.6818C30.0643 24.3653 29.6351 24.1875 29.1875 24.1875Z" fill="#23A6F0"/>
</svg>
